<svg width="4459" height="776" viewBox="0 0 4459 776" fill="none" xmlns="http://www.w3.org/2000/svg">
<path d="M807.527 329.753C793.911 341.897 777.42 347.985 758.076 348.082C738.731 348.142 722.18 342.189 708.444 330.155L573.728 212.341L575.65 598.178C575.735 615.27 568.965 629.878 555.337 641.993C541.721 654.128 525.23 660.235 505.886 660.313C486.541 660.392 469.99 654.419 456.253 642.396C442.506 630.391 435.59 615.839 435.505 598.747L432.839 63.6162C432.754 46.5347 439.525 31.9265 453.152 19.8111C466.779 7.66655 483.259 1.56957 502.603 1.491C521.959 1.41239 538.499 7.37526 552.236 19.4086L807.103 242.299C820.861 254.313 827.766 268.866 827.851 285.948C827.926 303.029 821.165 317.618 807.527 329.753ZM254.097 71.904C254.012 54.8321 260.794 40.2239 274.41 28.0891C288.037 15.964 304.528 9.85728 323.862 9.77876C343.228 9.7001 359.768 15.6727 373.505 27.6866C387.252 39.7103 394.168 54.2629 394.253 71.3347L396.917 605.942C397.002 623.014 390.231 637.632 376.604 649.748C362.988 661.882 346.508 667.989 327.141 668.068C307.808 668.146 291.256 662.174 277.509 650.15L22.6417 427.24C8.90539 415.226 1.97812 400.683 1.89302 383.602C1.80792 366.52 8.59001 351.921 22.2061 339.796C35.8331 327.662 52.3133 321.545 71.6688 321.467C91.0132 321.388 107.565 327.37 121.312 339.394L256.017 457.218L254.097 71.904Z" fill="url(#paint0_linear_1125_146)"/>
<path d="M1022.86 615.176V81.9727H1119.17V322.939C1130.64 307.314 1145.17 294.985 1162.75 285.952C1180.33 276.675 1201.32 272.036 1225.74 272.036C1267.73 272.036 1301.3 287.539 1326.44 318.545C1351.83 349.307 1364.53 389.102 1364.53 437.93V449.648C1364.53 498.477 1351.71 539.492 1326.08 572.695C1300.44 605.898 1266.63 622.5 1224.64 622.5C1200.22 622.5 1178.74 618.35 1160.18 610.049C1141.87 601.504 1127.71 589.907 1117.7 575.259H1117.34V615.176H1022.86ZM1119.17 506.411C1125.27 519.106 1134.31 530.215 1146.27 539.736C1158.48 549.258 1174.34 554.019 1193.88 554.019C1217.8 554.019 1235.87 544.009 1248.08 523.989C1260.53 503.97 1266.75 478.945 1266.75 448.916V440.127C1266.75 410.342 1260.53 386.538 1248.08 368.716C1235.87 350.894 1216.83 341.982 1190.95 341.982C1173.37 341.982 1158.35 346.743 1145.9 356.265C1133.7 365.542 1124.78 376.528 1119.17 389.224V506.411Z" fill="#CAC5C5"/>
<path d="M1419.43 615.176V280.459H1516.85V327.334H1517.21C1526.98 311.709 1539.55 299.014 1554.93 289.248C1570.31 279.238 1588.26 274.233 1608.76 274.233C1615.36 274.233 1621.83 274.722 1628.17 275.698C1634.52 276.431 1638.92 277.285 1641.36 278.262V351.138C1636.96 349.673 1631.59 348.574 1625.24 347.842C1618.9 346.865 1611.94 346.377 1604.37 346.377C1588.01 346.377 1571.9 351.748 1556.03 362.49C1540.41 372.988 1527.95 387.026 1518.68 404.604V615.176H1419.43Z" fill="#CAC5C5"/>
<path d="M1681.25 615.176V280.459H1779.76V615.176H1681.25ZM1674.29 158.511C1674.29 144.106 1679.17 131.899 1688.94 121.89C1698.7 111.88 1712.62 106.875 1730.68 106.875C1748.75 106.875 1762.54 111.758 1772.07 121.523C1781.59 131.289 1786.35 143.618 1786.35 158.511C1786.35 173.159 1781.47 185.61 1771.7 195.864C1761.93 205.874 1748.02 210.879 1729.95 210.879C1712.13 210.879 1698.34 205.752 1688.57 195.498C1679.05 185.244 1674.29 172.915 1674.29 158.511Z" fill="#CAC5C5"/>
<path d="M1835.39 453.311V441.592C1835.39 392.764 1848.21 352.48 1873.84 320.742C1899.48 289.004 1933.29 273.135 1975.29 273.135C2001.16 273.135 2023.01 277.285 2040.84 285.586C2058.66 293.887 2072.58 304.873 2082.58 318.545V81.9727H2177.43V615.176H2084.42L2084.05 566.47H2083.68C2073.67 581.851 2059.51 595.034 2041.2 606.021C2022.89 617.007 2000.92 622.5 1975.29 622.5C1932.07 622.5 1897.89 606.509 1872.75 574.526C1847.84 542.544 1835.39 502.139 1835.39 453.311ZM1933.54 452.212C1933.54 481.997 1939.64 506.411 1951.85 525.454C1964.3 544.497 1983.59 554.019 2009.71 554.019C2027.04 554.019 2041.81 549.014 2054.02 539.004C2066.47 528.994 2075.38 517.642 2080.75 504.946V387.393C2075.63 374.697 2066.84 363.955 2054.39 355.166C2041.94 346.133 2027.04 341.616 2009.71 341.616C1983.34 341.616 1964.05 351.138 1951.85 370.181C1939.64 389.224 1933.54 413.516 1933.54 443.057V452.212Z" fill="#CAC5C5"/>
<path d="M2247.72 738.955L2266.76 671.572C2277.5 679.873 2293.62 688.052 2315.1 696.108C2336.83 704.165 2359.17 708.193 2382.12 708.193C2407.02 708.193 2428.99 700.381 2448.04 684.756C2467.32 669.375 2476.97 642.52 2476.97 604.189V568.301C2465.98 583.438 2451.94 595.767 2434.85 605.288C2417.76 614.81 2395.3 619.57 2367.47 619.57C2325.96 619.57 2293.01 604.067 2268.59 573.062C2244.18 542.056 2231.97 502.139 2231.97 453.311V441.592C2231.97 392.764 2243.69 352.48 2267.13 320.742C2290.81 289.004 2324.5 273.135 2368.2 273.135C2391.39 273.135 2412.63 278.018 2431.92 287.783C2451.45 297.549 2466.22 310 2476.23 325.137H2476.97L2477.33 280.459H2572.55V588.442C2572.55 649.478 2557.04 695.986 2526.04 727.969C2495.03 759.951 2452.55 775.942 2398.6 775.942C2367.1 775.942 2338.42 772.28 2312.54 764.956C2286.66 757.632 2265.05 748.965 2247.72 738.955ZM2328.28 452.212C2328.28 481.997 2334.39 506.167 2346.59 524.722C2359.05 543.032 2378.46 552.188 2404.82 552.188C2422.16 552.188 2437.05 547.305 2449.5 537.539C2461.95 527.773 2470.74 516.421 2475.87 503.481V389.956C2470.5 377.261 2461.58 366.03 2449.13 356.265C2436.93 346.499 2422.16 341.616 2404.82 341.616C2378.46 341.616 2359.05 351.138 2346.59 370.181C2334.39 389.224 2328.28 413.516 2328.28 443.057V452.212Z" fill="#CAC5C5"/>
<path d="M2626.35 452.578V440.859C2626.35 389.346 2641.98 348.208 2673.23 317.446C2704.48 286.685 2746.35 271.304 2798.84 271.304C2850.35 271.304 2889.9 285.952 2917.49 315.249C2945.32 344.546 2959.24 385.073 2959.24 436.831V464.297H2677.25V411.929H2865.12V409.731C2865.12 390.933 2859.87 374.697 2849.37 361.025C2838.88 347.109 2821.66 340.151 2797.74 340.151C2773.08 340.151 2754.4 348.94 2741.71 366.519C2729.01 384.097 2722.67 405.825 2722.67 431.704V453.311C2722.67 484.805 2729.5 509.463 2743.17 527.285C2756.84 545.107 2776.5 554.019 2802.13 554.019C2820.44 554.019 2835.7 550.356 2847.91 543.032C2860.36 535.708 2870 525.942 2876.84 513.735L2956.67 539.37C2946.42 564.517 2928.84 584.78 2903.94 600.161C2879.28 615.542 2845.59 623.232 2802.87 623.232C2746.71 623.232 2703.26 607.974 2672.49 577.456C2641.73 546.938 2626.35 505.312 2626.35 452.578Z" fill="#CAC5C5"/>
<path d="M3033.18 615.176V214.907C3033.18 168.765 3045.88 133.73 3071.27 109.805C3096.9 85.8789 3131.94 73.916 3176.37 73.916C3185.65 73.916 3194.32 74.5264 3202.37 75.7471C3210.43 76.9678 3218.73 78.4326 3227.28 80.1416L3222.51 152.651C3218.12 151.919 3213.12 151.064 3207.5 150.088C3201.88 148.867 3195.66 148.257 3188.82 148.257C3169.29 148.257 3154.28 154.482 3143.78 166.934C3133.28 179.141 3128.03 199.404 3128.03 227.725V297.305L3129.13 300.967V615.176H3033.18ZM2977.15 352.603V280.459H3053.33H3060.28H3198.34V352.603H2977.15ZM3231.67 615.176V81.9727H3329.45V615.176H3231.67Z" fill="#CAC5C5"/>
<path d="M3384.72 519.595C3384.72 486.636 3397.78 460.269 3423.9 440.493C3450.03 420.474 3485.06 410.464 3529 410.464H3613.23V384.829C3613.23 366.763 3608.72 353.213 3599.68 344.18C3590.89 334.902 3576.49 330.264 3556.47 330.264C3536.94 330.264 3521.92 334.292 3511.43 342.349C3500.93 350.161 3495.68 361.636 3495.68 376.772V384.829L3405.96 384.463V373.843C3405.96 343.813 3419.87 319.399 3447.71 300.601C3475.78 281.558 3514.23 272.036 3563.06 272.036C3611.89 272.036 3648.63 281.069 3673.29 299.136C3697.95 317.202 3710.28 346.865 3710.28 388.125V534.243C3710.28 548.892 3711.38 562.808 3713.58 575.991C3715.77 588.931 3719.31 600.161 3724.2 609.683V615.176H3629.35C3625.68 609.072 3622.63 601.748 3620.19 593.203C3617.99 584.414 3616.41 575.381 3615.43 566.104C3607.13 579.775 3593.09 592.227 3573.32 603.457C3553.54 614.443 3528.52 619.937 3498.24 619.937C3462.84 619.937 3435.01 611.392 3414.75 594.302C3394.73 577.212 3384.72 552.31 3384.72 519.595ZM3480.3 513.369C3480.3 529.727 3485.06 542.056 3494.58 550.356C3504.35 558.657 3518.26 562.808 3536.33 562.808C3555.62 562.808 3573.19 555.972 3589.06 542.3C3605.18 528.628 3613.23 513.247 3613.23 496.157V462.466H3558.67C3532.06 462.466 3512.28 466.616 3499.34 474.917C3486.65 482.974 3480.3 495.791 3480.3 513.369Z" fill="#CAC5C5"/>
<path d="M3773.24 507.876L3859.3 508.608V516.299C3859.3 534.854 3865.16 547.915 3876.88 555.483C3888.6 562.808 3904.46 566.47 3924.48 566.47C3944.26 566.47 3959.03 563.296 3968.8 556.948C3978.56 550.601 3983.44 540.713 3983.44 527.285C3983.44 514.59 3977.58 504.946 3965.87 498.354C3954.15 491.763 3932.79 485.049 3901.78 478.213C3859.79 469.668 3829.15 457.095 3809.86 440.493C3790.82 423.892 3781.3 400.698 3781.3 370.913C3781.3 338.931 3794.11 314.272 3819.75 296.938C3845.63 279.604 3881.27 270.938 3926.68 270.938C3971.6 270.938 4006.88 279.971 4032.52 298.037C4058.4 315.859 4071.33 341.738 4071.33 375.674V383.364H3985.28V376.04C3985.28 358.95 3979.9 347.109 3969.16 340.518C3958.66 333.682 3943.77 330.264 3924.48 330.264C3907.15 330.264 3894.21 333.071 3885.67 338.687C3877.12 344.302 3872.85 353.091 3872.85 365.054C3872.85 375.552 3878.46 383.975 3889.69 390.322C3901.17 396.67 3922.17 403.14 3952.68 409.731C3996.14 418.521 4028.24 430.85 4049 446.719C4069.75 462.588 4080.12 484.805 4080.12 513.369C4080.12 549.258 4067.06 576.602 4040.94 595.4C4015.06 613.955 3976.97 623.232 3926.68 623.232C3877.61 623.232 3839.89 613.955 3813.52 595.4C3787.4 576.602 3773.97 549.868 3773.24 515.2V507.876Z" fill="#CAC5C5"/>
<path d="M4140.89 615.176V81.9727H4237.57V325.503C4246.36 309.146 4260.15 296.206 4278.95 286.685C4297.99 276.919 4320.7 272.036 4347.06 272.036C4380.75 272.036 4407.73 281.436 4428 300.234C4448.5 319.033 4458.76 350.039 4458.76 393.252V615.176H4361.71V409.731C4361.71 386.538 4356.83 370.181 4347.06 360.659C4337.3 350.894 4323.5 346.011 4305.68 346.011C4290.54 346.011 4277 350.527 4265.03 359.561C4253.07 368.594 4243.91 380.19 4237.57 394.351V615.176H4140.89Z" fill="#CAC5C5"/>
<defs>
<linearGradient id="paint0_linear_1125_146" x1="774.443" y1="-38.8766" x2="518.605" y2="590.288" gradientUnits="userSpaceOnUse">
<stop offset="0.411458" stop-color="#2F3D86"/>
<stop offset="1" stop-color="#5DD7AD"/>
</linearGradient>
</defs>
</svg>
